<svg width="3248" height="1652" viewBox="0 0 3248 1652" fill="none" xmlns="http://www.w3.org/2000/svg">
<g id="7.2">
<rect width="3248" height="1652" fill="white"/>
<path id="FLOOR__F3__H7.2" d="M3005 1412.5L308 1412.9V351H2459L2547.5 439.5V523.5H2643.5L2825 705V891H3005V1412.5Z" fill="#CA0808" fill-opacity="0.2"/>
<g id="DOOR__F3__H7.2">
<line id=" DOORS__F3__H7.2__01&#229;&#143;&#183;&#229;&#135;&#186;&#229;&#133;&#165;&#229;&#143;&#163;" x1="2831" y1="1413.5" x2="2997" y2="1413.5" stroke="#00D0EB" stroke-width="5"/>
<line id=" DOORS__F3__H7.2__02&#229;&#143;&#183;&#229;&#135;&#186;&#229;&#133;&#165;&#229;&#143;&#163;" x1="2566" y1="1413.5" x2="2636" y2="1413.5" stroke="#00D0EB" stroke-width="5"/>
<line id=" DOORS__F3__H7.2__03&#229;&#143;&#183;&#229;&#135;&#186;&#229;&#133;&#165;&#229;&#143;&#163;" x1="2292" y1="1413.5" x2="2362" y2="1413.5" stroke="#00D0EB" stroke-width="5"/>
<line id=" DOORS__F3__H7.2__04&#229;&#143;&#183;&#229;&#135;&#186;&#229;&#133;&#165;&#229;&#143;&#163;" x1="1932" y1="1413.5" x2="2095" y2="1413.5" stroke="#00D0EB" stroke-width="5"/>
<line id=" DOORS__F3__H7.2__05&#229;&#143;&#183;&#229;&#135;&#186;&#229;&#133;&#165;&#229;&#143;&#163;" x1="1661" y1="1413.5" x2="1734" y2="1413.5" stroke="#00D0EB" stroke-width="5"/>
<line id=" DOORS__F3__H7.2__06&#229;&#143;&#183;&#229;&#135;&#186;&#229;&#133;&#165;&#229;&#143;&#163;" x1="1390" y1="1413.5" x2="1460" y2="1413.5" stroke="#00D0EB" stroke-width="5"/>
<line id=" DOORS__F3__H7.2__07&#229;&#143;&#183;&#229;&#135;&#186;&#229;&#133;&#165;&#229;&#143;&#163;" x1="1030" y1="1413.5" x2="1193" y2="1413.5" stroke="#00D0EB" stroke-width="5"/>
<line id=" DOORS__F3__H7.2__08&#229;&#143;&#183;&#229;&#135;&#186;&#229;&#133;&#165;&#229;&#143;&#163;" x1="762" y1="1413.5" x2="832" y2="1413.5" stroke="#00D0EB" stroke-width="5"/>
<line id=" DOORS__F3__H7.2__09&#229;&#143;&#183;&#229;&#135;&#186;&#229;&#133;&#165;&#229;&#143;&#163;" x1="488" y1="1413.5" x2="558" y2="1413.5" stroke="#00D0EB" stroke-width="5"/>
<line id=" DOORS__F3__H7.2__10&#229;&#143;&#183;&#229;&#135;&#186;&#229;&#133;&#165;&#229;&#143;&#163;" x1="308" y1="1413.5" x2="339" y2="1413.5" stroke="#00D0EB" stroke-width="5"/>
<line id=" DOORS__F3__H7.2__11&#229;&#143;&#183;&#229;&#135;&#186;&#229;&#133;&#165;&#229;&#143;&#163;" x1="308.5" y1="1236" x2="308.5" y2="1162" stroke="#00D0EB" stroke-width="5"/>
<line id=" DOORS__F3__H7.2__12&#229;&#143;&#183;&#229;&#135;&#186;&#229;&#133;&#165;&#229;&#143;&#163;" x1="308.5" y1="971" x2="308.5" y2="888" stroke="#00D0EB" stroke-width="5"/>
<line id=" DOORS__F3__H7.2__13&#229;&#143;&#183;&#229;&#135;&#186;&#229;&#133;&#165;&#229;&#143;&#163;" x1="308.5" y1="877" x2="308.5" y2="791" stroke="#00D0EB" stroke-width="5"/>
<line id=" DOORS__F3__H7.2__14&#229;&#143;&#183;&#229;&#135;&#186;&#229;&#133;&#165;&#229;&#143;&#163;" x1="308.5" y1="600" x2="308.5" y2="528" stroke="#00D0EB" stroke-width="5"/>
<line id=" DOORS__F3__H7.2__15&#229;&#143;&#183;&#229;&#135;&#186;&#229;&#133;&#165;&#229;&#143;&#163;" x1="549" y1="350.5" x2="523" y2="350.5" stroke="#00D0EB" stroke-width="5"/>
<line id=" DOORS__F3__H7.2__16&#229;&#143;&#183;&#229;&#135;&#186;&#229;&#133;&#165;&#229;&#143;&#163;" x1="819" y1="350.5" x2="773" y2="350.5" stroke="#00D0EB" stroke-width="5"/>
<line id=" DOORS__F3__H7.2__17&#229;&#143;&#183;&#229;&#135;&#186;&#229;&#133;&#165;&#229;&#143;&#163;" x1="1189" y1="350.5" x2="1031" y2="350.5" stroke="#00D0EB" stroke-width="5"/>
<line id=" DOORS__F3__H7.2__18&#229;&#143;&#183;&#229;&#135;&#186;&#229;&#133;&#165;&#229;&#143;&#163;" x1="1451" y1="350.5" x2="1423" y2="350.5" stroke="#00D0EB" stroke-width="5"/>
<line id=" DOORS__F3__H7.2__19&#229;&#143;&#183;&#229;&#135;&#186;&#229;&#133;&#165;&#229;&#143;&#163;" x1="1719" y1="350.5" x2="1675" y2="350.5" stroke="#00D0EB" stroke-width="5"/>
<line id=" DOORS__F3__H7.2__20&#229;&#143;&#183;&#229;&#135;&#186;&#229;&#133;&#165;&#229;&#143;&#163;" x1="2094" y1="350.5" x2="1931" y2="350.5" stroke="#00D0EB" stroke-width="5"/>
<line id=" DOORS__F3__H7.2__21&#229;&#143;&#183;&#229;&#135;&#186;&#229;&#133;&#165;&#229;&#143;&#163;" x1="2630" y1="522.5" x2="2548" y2="522.5" stroke="#00D0EB" stroke-width="5"/>
<line id=" DOORS__F3__H7.2__22&#229;&#143;&#183;&#229;&#135;&#186;&#229;&#133;&#165;&#229;&#143;&#163;" x1="2990" y1="889.5" x2="2825" y2="889.5" stroke="#00D0EB" stroke-width="5"/>
</g>
<g id="STAIRS__F3__H7.2">
<rect id="STAIRS__F3__H1.1_13" x="381" y="279" width="142" height="72" fill="#722B2B"/>
<rect id="STAIRS__F3__H1.1_12" x="237" y="601" width="71" height="103" fill="#722B2B"/>
<rect id="STAIRS__F3__H1.1_11" x="237" y="1067" width="71" height="95" fill="#722B2B"/>
<rect id="STAIRS__F3__H1.1_10" x="373" y="1464" width="115" height="50" fill="#722B2B"/>
<rect id="STAIRS__F3__H1.1_09" x="832" y="1452" width="124" height="62" fill="#722B2B"/>
<rect id="STAIRS__F3__H1.1_08" x="1273" y="1459" width="117" height="55" fill="#722B2B"/>
<rect id="STAIRS__F3__H1.1_07" x="1734" y="1453" width="124" height="61" fill="#722B2B"/>
<rect id="STAIRS__F3__H1.1_06" x="2175" y="1459" width="117" height="55" fill="#722B2B"/>
<rect id="STAIRS__F3__H1.1_05" x="819" y="279" width="106" height="72" fill="#722B2B"/>
<rect id="STAIRS__F3__H1.1_04" x="1306" y="279" width="117" height="72" fill="#722B2B"/>
<rect id="STAIRS__F3__H1.1_03" x="1719" y="279" width="105" height="72" fill="#722B2B"/>
<rect id="STAIRS__F3__H1.1_02" x="2184" y="279" width="89" height="72" fill="#722B2B"/>
<rect id="STAIRS__F3__H1.1_01" x="2664" y="1464" width="89" height="50" fill="#722B2B"/>
</g>
<g id="WC_FEMALE__F3__H7.2">
<rect id="WC_FEMALE__F3__H7.2_06" x="1494" y="280" width="83" height="71" fill="#DC64CE"/>
<rect id="WC_FEMALE__F3__H7.2_05" x="592" y="280" width="83" height="71" fill="#DC64CE"/>
<rect id="WC_FEMALE__F3__H7.2_04" x="238" y="972" width="70" height="95" fill="#DC64CE"/>
<rect id="WC_FEMALE__F3__H7.2_03" x="373" y="1413" width="115" height="50" fill="#DC64CE"/>
<path id="WC_FEMALE__F3__H7.2_02" d="M1320 1457.94V1413H1299.74V1436.23H1194V1514H1271.58V1457.94H1320Z" fill="#DC64CE"/>
<path id="WC_FEMALE__F3__H7.2_01" d="M2221 1457.94V1413H2200.74V1436.23H2095V1514H2172.58V1457.94H2221Z" fill="#DC64CE"/>
</g>
<g id="WC_MALE__F3__H07.2">
<path id="WC_MALE__F3__H7.2_06" d="M1577 279.5V351H1586.5V325.5H1616V300H1675V279.5H1577Z" fill="#79A2F4"/>
<path id="WC_MALE__F3__H7.2_05" d="M675 279.5V351H684.5V325.5H714V300H773V279.5H675Z" fill="#79A2F4"/>
<rect id="WC_MALE__F3__H7.2_04" x="237" y="705" width="71" height="84" fill="#79A2F4"/>
<path id="WC_MALE__F3__H7.2_03" d="M902 1451.5C902.167 1438.83 902.4 1413.4 902 1413H921.5V1437H1030V1514H956.5V1451.5H902Z" fill="#79A2F4"/>
<path id="WC_MALE__F3__H7.2_02" d="M1804 1451.5C1804.17 1438.83 1804.4 1413.4 1804 1413H1823.5V1437H1932V1514H1858.5V1451.5H1804Z" fill="#79A2F4"/>
<rect id="WC_MALE__F3__H7.2_01" x="2664" y="1413" width="89" height="51" fill="#79A2F4"/>
</g>
<g id="WC_ACCESSIBLE__F3__H7.2">
<rect id="WC_ACCESSIBLE__F3__H7.2_06" x="2175" y="1413" width="26" height="22" fill="#6FA24E"/>
<rect id="WC_ACCESSIBLE__F3__H7.2_05" x="1823" y="1413" width="35" height="23" fill="#6FA24E"/>
<rect id="WC_ACCESSIBLE__F3__H7.2_04" x="1272" y="1413" width="28" height="23" fill="#6FA24E"/>
<rect id="WC_ACCESSIBLE__F3__H7.2_03" x="921" y="1413" width="35" height="23" fill="#6FA24E"/>
<rect id="WC_ACCESSIBLE__F3__H7.2_02" x="684" y="326" width="30" height="24" fill="#6FA24E"/>
<rect id="WC_ACCESSIBLE__F3__H7.2_01" x="1586" y="326" width="30" height="24" fill="#6FA24E"/>
</g>
<g id="ESCALATORS__F3__H7.2">
<rect id="ESCALATORS__F3__H7.2_04" x="2384" y="1443" width="156" height="32" fill="#DFB568"/>
<rect id="ESCALATORS__F3__H7.2_03" x="1484" y="1443" width="156" height="32" fill="#DFB568"/>
<rect id="ESCALATORS__F3__H7.2_02" x="582" y="1443" width="156" height="32" fill="#DFB568"/>
<rect id="ESCALATORS__F3__H7.2_01" x="2647.63" y="556" width="193" height="32" transform="rotate(45 2647.63 556)" fill="#DFB568"/>
</g>
<g id="ELEVATORS__F3__H7.2">
<g id="ELEVATORS__F3__H7.2_06">
<path d="M2796 1444H2822V1470H2796V1444Z" fill="#0E3C80"/>
<path d="M2796 1473H2822V1499H2796V1473Z" fill="#0E3C80"/>
</g>
<g id="ELEVATORS__F3__H7.2_05">
<path d="M282 1424H308V1450H282V1424Z" fill="#0E3C80"/>
<path d="M282 1453H308V1479H282V1453Z" fill="#0E3C80"/>
</g>
<g id="ELEVATORS__F3__H7.2_04">
<path d="M555 288H581V314H555V288Z" fill="#0E3C80"/>
<path d="M555 317H581V343H555V317Z" fill="#0E3C80"/>
</g>
<g id="ELEVATORS__F3__H7.2_03">
<path d="M1462 288H1488V314H1462V288Z" fill="#0E3C80"/>
<path d="M1462 317H1488V343H1462V317Z" fill="#0E3C80"/>
</g>
<path id="ELEVATORS__F3__H7.2_02" d="M731 309H757V335H731V309Z" fill="#0E3C80"/>
<path id="ELEVATORS__F3__H7.2_01" d="M1638 309H1664V335H1638V309Z" fill="#0E3C80"/>
</g>
<g id="WALLS__F3__H7.2">
<path id="WALLS__F3__H7.2_32" d="M549 351.001H667" stroke="black" stroke-width="4"/>
<path id="WALLS__F3__H7.2_31" d="M883.5 279H819V292.5" stroke="black" stroke-width="4"/>
<path id="WALLS__F3__H7.2_30" d="M1783.5 279H1719V292.5" stroke="black" stroke-width="4"/>
<path id="WALLS__F3__H7.2_29" d="M2273.5 279H2209M2273.5 279V292.5M2273.5 279H2391.5L2460.5 351.5" stroke="black" stroke-width="4"/>
<path id="WALLS__F3__H7.2_28" d="M1358 279H1422.5V292.5" stroke="black" stroke-width="4"/>
<path id="WALLS__F3__H7.2_27" d="M819 321.75V351H925.5M925.5 351H1031L1031 279H925M925.5 351L925 279M904.25 279H925" stroke="black" stroke-width="4"/>
<path id="WALLS__F3__H7.2_26" d="M1719 321.75V351H1825.5M1825.5 351H1931L1931 279H1825M1825.5 351L1825 279M1804.25 279H1825" stroke="black" stroke-width="4"/>
<path id="WALLS__F3__H7.2_25" d="M2274 321.75V351H2183.58M2183.58 351H2094L2094 279H2184M2183.58 351L2184 279M2201.62 279H2184" stroke="black" stroke-width="4"/>
<path id="WALLS__F3__H7.2_24" d="M1423 321.75V351H1305.45M1305.45 351H1189L1189 279H1306M1305.45 351L1306 279M1328.9 279H1306" stroke="black" stroke-width="4"/>
<path id="WALLS__F3__H7.2_23" d="M1447 351.001H1568" stroke="black" stroke-width="4"/>
<path id="WALLS__F3__H7.2_22" d="M2314.5 351.001H2460L2548 439.001V523.001" stroke="black" stroke-width="4"/>
<path id="WALLS__F3__H7.2_21" d="M2629.5 523.001H2643.5L2825 704.501V890.501" stroke="black" stroke-width="4"/>
<path id="WALLS__F3__H7.2_20" d="M2989.5 891H3004.5V1412.5H2996" stroke="black" stroke-width="4"/>
<path id="WALLS__F3__H7.2_19" d="M1193 1435.5V1413L1272 1413L1301 1413M1390 1458.5L1390 1413H1320.5L1320.5 1458.5M1193 1435.5L1193 1514L1272 1514L1272 1458.5L1320.5 1458.5L1390 1458.5M1390 1458.5L1390 1514M1193 1435.5L1272 1435.5M1301 1435.5L1272 1435.5M1272 1435.5L1272 1413M1301 1514L1368 1514" stroke="black" stroke-width="4"/>
<path id="WALLS__F3__H7.2_18" d="M2095 1435.5L2095 1413L2174 1413L2203 1413M2292 1458.5L2292 1413H2222.5L2222.5 1458.5M2095 1435.5V1514L2174 1514L2174 1458.5L2222.5 1458.5L2292 1458.5M2292 1458.5L2292 1514M2095 1435.5L2174 1435.5M2203 1435.5L2174 1435.5M2174 1435.5L2174 1413M2203 1514L2270 1514" stroke="black" stroke-width="4"/>
<path id="WALLS__F3__H7.2_17" d="M921 1413L956 1413M857 1515H832V1452M887 1515H921M902 1452V1413L832 1413V1452M902 1452H956V1515H1030V1437M902 1452H832M1030 1437V1413L956 1413M1030 1437H956M921 1437H956M956 1437V1413" stroke="black" stroke-width="4"/>
<path id="WALLS__F3__H7.2_16" d="M1823 1413L1858 1413M1759 1515H1734V1452M1789 1515H1823M1804 1452V1413L1734 1413V1452M1804 1452H1858V1515H1932V1437M1804 1452H1734M1932 1437V1413L1858 1413M1932 1437H1858M1823 1437H1858M1858 1437V1413" stroke="black" stroke-width="4"/>
<path id="WALLS__F3__H7.2_15" d="M762 1413L558 1413M558 1477.27C558 1489.52 558 1514 558 1514L762 1514L762 1477.27L558 1477.27Z" stroke="black" stroke-width="4"/>
<path id="WALLS__F3__H7.2_14" d="M1664 1413L1460 1413M1460 1477.27C1460 1489.52 1460 1514 1460 1514L1664 1514L1664 1477.27L1460 1477.27Z" stroke="black" stroke-width="4"/>
<path id="WALLS__F3__H7.2_13" d="M2566 1413L2362 1413M2362 1477.27C2362 1489.52 2362 1514 2362 1514L2566 1514L2566 1477.27L2362 1477.27Z" stroke="black" stroke-width="4"/>
<path id="WALLS__F3__H7.2_12" d="M488 1413L445 1413M373 1463.5V1514H339L339 1413L373 1413L434 1413M373 1413V1463.5M373 1463.5L487 1463.5V1413M403.5 1514H487V1487" stroke="black" stroke-width="4"/>
<path id="WALLS__F3__H7.2_11" d="M2754 1413L2719.95 1413M2662.93 1463.5V1514H2636V1413L2662.93 1413L2711.23 1413M2662.93 1413V1463.5M2662.93 1463.5L2753.21 1463.5V1413M2687.08 1514H2753.21V1487M2789.5 1413H2830V1514H2789.5" stroke="black" stroke-width="4"/>
<path id="WALLS__F3__H7.2_10" d="M308.5 1236V1412.97L238 1412.97V1444.5L308.5 1515" stroke="black" stroke-width="4"/>
<path id="WALLS__F3__H7.2_09" d="M308 998L308 1162L270 1162" stroke="black" stroke-width="4"/>
<path id="WALLS__F3__H7.2_08" d="M308 985.927L308 972L238 972L238 1067M238 1162L238 1067M238 1067L308 1067" stroke="black" stroke-width="4"/>
<path id="WALLS__F3__H7.2_07" d="M308 888L308 877" stroke="black" stroke-width="4"/>
<path id="WALLS__F3__H7.2_06" d="M308 791L308 777" stroke="black" stroke-width="4"/>
<path id="WALLS__F3__H7.2_05" d="M308 765L308 601L270.5 601" stroke="black" stroke-width="4"/>
<path id="WALLS__F3__H7.2_04" d="M380.75 351.001L308 351.001L308 528.001L238 528.001L238 279L380.75 279L523.5 279M380.75 279L380.75 351.001M380.75 351.001L523.5 351.001L523.5 314" stroke="black" stroke-width="4"/>
<path id="WALLS__F3__H7.2_03" d="M308 789L238 789L238 705L238 600.5M238 705L308 705" stroke="black" stroke-width="4"/>
<path id="WALLS__F3__H7.2_02" d="M684 351.001H714M714 351.001H773M714 351.001V325.75M714 325.75V300.5H773V279H675M714 325.75H684M549 279H591.159M591.159 279V351M591.159 279H675M675 279V309" stroke="black" stroke-width="4"/>
<path id="WALLS__F3__H7.2_01" d="M1586 351.001H1616M1616 351.001H1675M1616 351.001V325.75M1616 325.75V300.5H1675V279H1577M1616 325.75H1586M1451 279H1493.16M1493.16 279V351M1493.16 279H1577M1577 279V309" stroke="black" stroke-width="4"/>
</g>
</g>
</svg>
