<svg width="2773" height="1262" viewBox="0 0 2773 1262" fill="none" xmlns="http://www.w3.org/2000/svg">
<rect width="2773" height="1262" fill="white"/>
<g id="1.1">
<path id="FLOOR__F3__H1.1" d="M2773 1160.5L76 1160.9V99.0001L2069 99L2337 366H2411L2645 600L2709 664L2773 728V1160.5Z" fill="#CA0808" fill-opacity="0.2"/>
<g id="DOOR__F3__H1.1">
<line id="DOORS__F3__H1.1__01" x1="2595" y1="1158.5" x2="2761" y2="1158.5" stroke="#00D0EB" stroke-width="5"/>
<line id="DOORS__F3__H1.1__02" x1="2330" y1="1158.5" x2="2400" y2="1158.5" stroke="#00D0EB" stroke-width="5"/>
<line id="DOORS__F3__H1.1__03" x1="2056" y1="1158.5" x2="2126" y2="1158.5" stroke="#00D0EB" stroke-width="5"/>
<line id="DOORS__F3__H1.1__04" x1="1687" y1="1158.5" x2="1868" y2="1158.5" stroke="#00D0EB" stroke-width="5"/>
<line id="DOORS__F3__H1.1__05" x1="1425" y1="1158.5" x2="1508" y2="1158.5" stroke="#00D0EB" stroke-width="5"/>
<line id="DOORS__F3__H1.1__06" x1="1154" y1="1158.5" x2="1224" y2="1158.5" stroke="#00D0EB" stroke-width="5"/>
<line id="DOORS__F3__H1.1__07" x1="794" y1="1158.5" x2="975" y2="1158.5" stroke="#00D0EB" stroke-width="5"/>
<line id="DOORS__F3__H1.1__08" x1="526" y1="1158.5" x2="615" y2="1158.5" stroke="#00D0EB" stroke-width="5"/>
<line id="DOORS__F3__H1.1__09" x1="252" y1="1158.5" x2="322" y2="1158.5" stroke="#00D0EB" stroke-width="5"/>
<line id="DOORS__F3__H1.1__10" x1="72" y1="1158.5" x2="103" y2="1158.5" stroke="#00D0EB" stroke-width="5"/>
<line id="DOORS__F3__H1.1__11" x1="72.5" y1="764" x2="72.5" y2="633" stroke="#00D0EB" stroke-width="5"/>
<line id="DOORS__F3__H1.1__12" x1="72.5" y1="622" x2="72.5" y2="488" stroke="#00D0EB" stroke-width="5"/>
<line id="DOORS__F3__H1.1__13" x1="313" y1="95.5" x2="287" y2="95.5" stroke="#00D0EB" stroke-width="5"/>
<line id="DOORS__F3__H1.1__14" x1="583" y1="95.5" x2="537" y2="95.5" stroke="#00D0EB" stroke-width="5"/>
<line id="DOORS__F3__H1.1__15" x1="953" y1="95.5" x2="795" y2="95.5" stroke="#00D0EB" stroke-width="5"/>
<line id="DOORS__F3__H1.1__16" x1="1228" y1="95.5" x2="1187" y2="95.5" stroke="#00D0EB" stroke-width="5"/>
<line id="DOORS__F3__H1.1__17" x1="1483" y1="95.5" x2="1439" y2="95.5" stroke="#00D0EB" stroke-width="5"/>
<line id="DOORS__F3__H1.1__18" x1="1858" y1="95.5" x2="1695" y2="95.5" stroke="#00D0EB" stroke-width="5"/>
<line id="DOORS__F3__H1.1__19" x1="2412" y1="363.5" x2="2330" y2="363.5" stroke="#00D0EB" stroke-width="5"/>
<line id="DOORS__F3__H1.1__20" x1="2767.22" y1="721.758" x2="2678.22" y2="631.758" stroke="#00D0EB" stroke-width="5"/>
</g>
<g id="STAIRS__F3__H1.1">
<rect id="STAIRS__F3__H1.1_13" x="145" y="24" width="107" height="72" fill="#722B2B"/>
<rect id="STAIRS__F3__H1.1_12" x="5" y="364" width="68" height="77" fill="#722B2B"/>
<rect id="STAIRS__F3__H1.1_11" x="19" y="764" width="54" height="108" fill="#722B2B"/>
<rect id="STAIRS__F3__H1.1_10" x="103" y="1209" width="149" height="50" fill="#722B2B"/>
<rect id="STAIRS__F3__H1.1_09" x="615" y="1209" width="113" height="50" fill="#722B2B"/>
<rect id="STAIRS__F3__H1.1_08" x="1042" y="1209" width="112" height="46" fill="#722B2B"/>
<rect id="STAIRS__F3__H1.1_07" x="1508" y="1210" width="112" height="46" fill="#722B2B"/>
<rect id="STAIRS__F3__H1.1_06" x="1939" y="1204" width="117" height="55" fill="#722B2B"/>
<rect id="STAIRS__F3__H1.1_05" x="650" y="24" width="80" height="72" fill="#722B2B"/>
<rect id="STAIRS__F3__H1.1_04" x="1070" y="24" width="74" height="72" fill="#722B2B"/>
<rect id="STAIRS__F3__H1.1_03" x="1549" y="24" width="83" height="72" fill="#722B2B"/>
<rect id="STAIRS__F3__H1.1_02" x="1948" y="24" width="90" height="72" fill="#722B2B"/>
<rect id="STAIRS__F3__H1.1_01" x="2441" y="1209" width="89" height="50" fill="#722B2B"/>
</g>
<g id="WC_FEMALE__F3__H1.1">
<rect id="WC_FEMALE__F3__H1.1_03" x="5" y="237" width="68" height="107" fill="#DC64CE"/>
<rect id="WC_FEMALE__F3__H1.1_03_2" x="103" y="1158" width="149" height="50" fill="#DC64CE"/>
<rect id="WC_FEMALE__F3__H1.1_03_3" x="975" y="1158" width="179" height="50" fill="#DC64CE"/>
<rect id="WC_FEMALE__F3__H1.1_03_4" x="1871" y="1158" width="185" height="50" fill="#DC64CE"/>
<rect id="WC_FEMALE__F3__H1.1_03_5" x="425" y="94" width="68" height="112" transform="rotate(-90 425 94)" fill="#DC64CE"/>
<rect id="WC_FEMALE__F3__H1.1_03_6" x="1331" y="94" width="68" height="112" transform="rotate(-90 1331 94)" fill="#DC64CE"/>
</g>
<g id="WC_MALE__F3__H1.1">
<rect id="WC_MALE__F3__H1.1_06" x="4" y="889" width="68" height="91" fill="#79A2F4"/>
<rect id="WC_MALE__F3__H1.1_05" x="615" y="1161" width="179" height="47" fill="#79A2F4"/>
<rect id="WC_MALE__F3__H1.1_04" x="1508" y="1161" width="179" height="47" fill="#79A2F4"/>
<rect id="WC_MALE__F3__H1.1_03" x="2400" y="1160" width="130" height="47" fill="#79A2F4"/>
<path id="WC_MALE__F3__H1.1_02" d="M425 24H313V45H372V69H425V45V24Z" fill="#79A2F4"/>
<path id="WC_MALE__F3__H1.1_01" d="M1330 24H1218V45H1277V69H1330V45V24Z" fill="#79A2F4"/>
</g>
<g id="WC_ACCESSIBLE__F3__H1.1">
<rect id="WC_ACCESSIBLE__F3__H1.1_06" x="373" y="94" width="24" height="28" transform="rotate(-90 373 94)" fill="#6FA24E"/>
<rect id="WC_ACCESSIBLE__F3__H1.1_06_2" x="1279" y="94" width="24" height="28" transform="rotate(-90 1279 94)" fill="#6FA24E"/>
</g>
<g id="ESCALATORS__F3__H1.1">
<rect id="ESCALATORS__F3__H1.1_04" x="2148" y="1188" width="156" height="32" fill="#DFB568"/>
<rect id="ESCALATORS__F3__H1.1_03" x="1248" y="1188" width="156" height="32" fill="#DFB568"/>
<rect id="ESCALATORS__F3__H1.1_02" x="346" y="1188" width="156" height="32" fill="#DFB568"/>
<rect id="ESCALATORS__F3__H1.1_01" x="2434.63" y="406" width="193" height="32" transform="rotate(45 2434.63 406)" fill="#DFB568"/>
</g>
<g id="ELEVATORS__F3__H1.1">
<g id="ELEVATORS__F3__H1.1_08">
<path d="M2569 1203H2595V1229H2569V1203Z" fill="#0E3C80"/>
<path d="M2569 1230H2595V1256H2569V1230Z" fill="#0E3C80"/>
</g>
<path id="ELEVATORS__F3__H1.1_07" d="M1402 1227H1428V1253H1402V1227Z" fill="#0E3C80"/>
<path id="ELEVATORS__F3__H1.1_06" d="M1224 1227H1250V1253H1224V1227Z" fill="#0E3C80"/>
<g id="ELEVATORS__F3__H1.1_05">
<path d="M46 1170H72V1196H46V1170Z" fill="#0E3C80"/>
<path d="M46 1197H72V1223H46V1197Z" fill="#0E3C80"/>
</g>
<path id="ELEVATORS__F3__H1.1_04" d="M256 33H282V59H256V33Z" fill="#0E3C80"/>
<g id="ELEVATORS__F3__H1.1_03">
<path d="M1157 33H1183V59H1157V33Z" fill="#0E3C80"/>
<path d="M1157 62H1183V88H1157V62Z" fill="#0E3C80"/>
</g>
<path id="ELEVATORS__F3__H1.1_02" d="M588 36H614V62H588V36Z" fill="#0E3C80"/>
<path id="ELEVATORS__F3__H1.1_01" d="M1489 40H1515V66H1489V40Z" fill="#0E3C80"/>
</g>
<g id="WALL__H1.1">
<path id="WALLS__F3__H1.1_19" d="M1122 24H1186.5V37.4999M1187 66.75V96H1069.45M1069.45 96H953L953 24H1070M1069.45 96L1070 24M1070 24H1092.9" stroke="black" stroke-width="4"/>
<path id="WALLS__F3__H1.1_18" d="M526 1158L322 1158M342 1232.76C342 1241.84 342 1260 342 1260L526 1260L526 1232.76L342 1232.76Z" stroke="black" stroke-width="4"/>
<path id="WALLS__F3__H1.1_17" d="M1428 1158L1224 1158M1428 1256L1326 1256M1224 1256L1326 1256M1326 1256L1326 1222.59M1428 1222.59L1326 1222.59L1224 1222.59" stroke="black" stroke-width="4"/>
<path id="WALLS__F3__H1.1_16" d="M2330 1158L2126 1158M2126 1222.91C2126 1235.27 2126 1260 2126 1260L2330 1260L2330 1222.91L2126 1222.91Z" stroke="black" stroke-width="4"/>
<path id="WALLS__F3__H1.1_15" d="M72 934.174L72 981L72.5 1157.97L17 1157.97H2M2 1157.97V1189.5L72.5 1260M2 1157.97V887.347H72L72 779.906V764H19M2 764V863.5" stroke="black" stroke-width="4"/>
<path id="WALLS__F3__H1.1_14" d="M72 633L72 622" stroke="black" stroke-width="4"/>
<path id="WALLS__F3__H1.1_13" d="M287.5 24H251.812V96.0009M144.75 24V96.0009M71.5035 345H2V95.9999L73.9999 24H144.75M144.75 24H216.125M72.0001 96.0009L144.75 96.0009M144.75 96.0009H251.812M287.5 59V96.0009H251.812M16.8936 486H71.5035V470.254L71.5035 363.895M71.5035 317.541L71.5035 271.187L72 95.9998L16.8936 95.9999H2M2 486V363.895" stroke="black" stroke-width="4"/>
<path id="WALLS__F3__H1.1_12" d="M583 37.4999V24H647.5V96M583 66.75V96H647.5M647.5 96H731.625M668.25 24H731.625M731.625 24H795L795 96H731.625M731.625 24V96" stroke="black" stroke-width="4"/>
<path id="WALLS__F3__H1.1_11" d="M1483 37.4999V24H1547.5V96M1483 66.75V96H1547.5M1547.5 96H1631.62M1568.25 24H1631.62M1631.62 24H1695L1695 96H1631.62M1631.62 24V96" stroke="black" stroke-width="4"/>
<path id="WALLS__F3__H1.1_10" d="M2768.5 718.5V1157.5H2760M2037.5 24H1998M2037.5 24V37.4999M2037.5 24H2077.5L2146.5 96.5L2331.5 281.5V363.5L2064 96.0011M2038 37.4999V96H1947.58M1947.58 96H1858L1858 24H1948M1947.58 96L1948 24M1948 24H1965.62M2037.5 96.0011H2064M2146 96.0011H2064M2413.5 363.5L2591 541L2679.75 629.75" stroke="black" stroke-width="4"/>
<path id="WALLS__F3__H1.1_09" d="M252 1158L209 1158M137 1259H103V1235M198 1158L137 1158L103 1158L103 1216M103 1208.5H251M251 1208.5V1158M251 1208.5V1259H167.5" stroke="black" stroke-width="4"/>
<path id="WALLS__F3__H1.1_08" d="M1307 96.0012H1277M1277 96.0012H1218M1277 96.0012V70.7507M1441.5 24.0002L1329 24L1218 24.0002V45.5002H1277V70.7507M1277 70.7507H1307M1442 24.0002H1441.5M1441.5 24.0002C1441.5 24.0002 1441.5 45.9413 1441.5 60.0002C1441.5 74.0591 1441.5 96.0002 1441.5 96.0002H1329M1329 24V54" stroke="black" stroke-width="4"/>
<path id="WALLS__F3__H1.1_07" d="M402 96.0012H372M372 96.0012H313M372 96.0012V70.7507M536.5 24.0002L424 24L313 24.0002V45.5002H372V70.7507M372 70.7507H402M537 24.0002H536.5M536.5 24.0002C536.5 24.0002 536.5 45.9413 536.5 60.0002C536.5 74.0591 536.5 96.0002 536.5 96.0002H424M424 24V54" stroke="black" stroke-width="4"/>
<path id="WALLS__F3__H1.1_06" d="M726.5 1158L704 1158L614 1158L614 1208L614 1260M614 1208L794 1208M794 1208L794 1158L771.5 1158M794 1208L794 1260L759.5 1260M737.5 1260L640.5 1260" stroke="black" stroke-width="4"/>
<path id="WALLS__F3__H1.1_05" d="M1044.5 1158L1067 1158L1157 1158L1157 1208L1157 1260M1157 1208L977 1208M977 1208L977 1158L999.5 1158M977 1208L977 1260L1011.5 1260M1033.5 1260L1130.5 1260" stroke="black" stroke-width="4"/>
<path id="WALLS__F3__H1.1_04" d="M1620.5 1158L1598 1158L1508 1158L1508 1208L1508 1260M1508 1208L1688 1208M1688 1208L1688 1158L1665.5 1158M1688 1208L1688 1260L1631.5 1260L1534.5 1260" stroke="black" stroke-width="4"/>
<path id="WALLS__F3__H1.1_03" d="M1940.75 1158L1964 1158L2057 1158L2057 1208L2057 1260M2057 1208L1871 1208M1871 1208L1871 1158L1894.25 1158M1871 1208L1871 1260L1929.38 1260L2029.62 1260" stroke="black" stroke-width="4"/>
<path id="WALLS__F3__H1.1_02" d="M2481.25 1158L2465 1158L2400 1158L2400 1208L2400 1260M2400 1208L2530 1208M2530 1208L2530 1158L2513.75 1158M2530 1208L2530 1260L2489.19 1260L2419.14 1260" stroke="black" stroke-width="4"/>
<path id="WALLS__F3__H1.1_01" d="M2645 1158L2645 1208L2645 1260L2612.5 1260L2612.5 1195L2572 1195L2572 1158L2645 1158Z" stroke="black" stroke-width="4"/>
</g>
<g id="Booth_1.1">
<path id="A066" d="M1881.8 628.544L1881.8 144.056L2100.36 144.056L2528.24 571.933L2528.24 628.544L1881.8 628.544Z" fill="#6F8EFF"/>
<path id="A065" d="M1881.8 688.051L2101.84 688.051L2101.84 877.533L1881.8 877.532L1881.8 688.051Z" fill="#6F8EFF"/>
<path id="A064" d="M1503.04 685.156L1757.13 685.156L1757.13 877.372L1503.04 877.372L1503.04 685.156Z" fill="#6F8EFF"/>
<path id="A063" d="M1503.04 906.334L1757.13 906.334L1757.13 1016.92L1503.04 1016.92L1503.04 906.334Z" fill="#6F8EFF"/>
<path id="A062" d="M1524.1 1056.42L1757.13 1056.42L1757.13 1142L1524.1 1142L1524.1 1056.42Z" fill="#6F8EFF"/>
<path id="A061" d="M1397.72 1056.42L1503.04 1056.42L1503.04 1142L1397.72 1142L1397.72 1056.42Z" fill="#6F8EFF"/>
<path id="A060" d="M1391.13 914.237L1470.13 914.237L1470.13 1016.93L1391.13 1016.93L1391.13 914.237Z" fill="#6F8EFF"/>
<path id="A059" d="M1380.6 685.156L1470.13 685.156L1470.13 891.854L1380.6 891.854L1380.6 685.156Z" fill="#6F8EFF"/>
<path id="A058" d="M1233.15 685.156L1356.9 685.156L1356.9 891.854L1233.15 891.854L1233.15 685.156Z" fill="#6F8EFF"/>
<path id="A057" d="M1270.01 924.766L1356.9 924.766L1356.9 1016.92L1270.01 1016.92L1270.01 924.766Z" fill="#6F8EFF"/>
<path id="A056" d="M1233.15 1056.42L1374.02 1056.42L1374.02 1109.08L1233.15 1109.08L1233.15 1056.42Z" fill="#6F8EFF"/>
<path id="A055" d="M952.725 1016.92L1204.18 1016.92L1204.18 1141.99L952.725 1141.99L952.725 1016.92Z" fill="#6F8EFF"/>
<path id="A054" d="M952.725 914.237L1218.67 914.237L1218.67 991.913L952.725 991.913L952.725 914.237Z" fill="#6F8EFF"/>
<path id="A053" d="M952.725 685.156L1204.18 685.156L1204.18 889.221L952.725 889.221L952.725 685.156Z" fill="#6F8EFF"/>
<path id="A052" d="M952.725 429.746L1105.44 429.746L1105.44 635.127L952.725 635.127L952.725 429.746Z" fill="#6F8EFF"/>
<path id="A051" d="M952.725 298.093L1105.44 298.093L1105.44 398.15L952.725 398.15L952.725 298.093Z" fill="#6F8EFF"/>
<path id="A050" d="M649.95 288.877L802.669 288.877L802.669 388.934L649.95 388.934L649.95 288.877Z" fill="#6F8EFF"/>
<path id="A049" d="M524.878 288.877L624.936 288.877L624.936 388.934L524.878 388.934L524.878 288.877Z" fill="#6F8EFF"/>
<path id="A048" d="M431.404 288.877L495.915 288.877L495.915 388.934L431.404 388.934L431.404 288.877Z" fill="#6F8EFF"/>
<path id="A047" d="M649.95 144.056L802.669 144.056L802.669 244.113L649.95 244.113L649.95 144.056Z" fill="#6F8EFF"/>
<path id="A046" d="M524.878 144.056L624.936 144.056L624.936 244.113L524.878 244.113L524.878 144.056Z" fill="#6F8EFF"/>
<path id="A045" d="M435.353 183.553L495.914 183.553L495.914 244.114L435.353 244.114L435.353 183.553Z" fill="#6F8EFF"/>
<path id="A044" d="M315.547 192.77L406.389 192.77L406.389 220.417L315.547 220.417L315.547 192.77Z" fill="#6F8EFF"/>
<path id="A043" d="M331.346 288.877L402.439 288.877L402.439 388.934L331.346 388.934L331.346 288.877Z" fill="#6F8EFF"/>
<path id="A042" d="M231.289 257.277L302.382 257.277L302.382 429.745L231.289 429.745L231.289 257.277Z" fill="#6F8EFF"/>
<path id="A041" d="M97.001 270.443L198.375 270.443L198.375 558.767L97.001 558.767L97.001 270.443Z" fill="#6F8EFF"/>
<path id="A040" d="M231.289 460.028L291.85 460.028L291.85 627.23L231.289 627.23L231.289 460.028Z" fill="#6F8EFF"/>
<path id="A039" d="M320.814 429.746L397.174 429.746L397.174 627.228L320.814 627.228L320.814 429.746Z" fill="#6F8EFF"/>
<path id="A038" d="M426.138 429.746L502.498 429.746L502.498 627.228L426.138 627.228L426.138 429.746Z" fill="#6F8EFF"/>
<path id="A037" d="M531.46 421.85L624.935 421.85L624.935 627.231L531.46 627.231L531.46 421.85Z" fill="#6F8EFF"/>
<path id="A036" d="M653.899 429.746L802.669 429.746L802.669 627.228L653.899 627.228L653.899 429.746Z" fill="#6F8EFF"/>
<path id="A035" d="M555.159 685.156L802.669 685.156L802.669 807.595L555.159 807.595L555.159 685.156Z" fill="#6F8EFF"/>
<path id="A034" d="M555.159 837.875L802.669 837.875L802.669 910.285L555.159 910.285L555.159 837.875Z" fill="#6F8EFF"/>
<path id="A033" d="M555.159 951.096L802.669 951.096L802.669 1030.09L555.159 1030.09L555.159 951.096Z" fill="#6F8EFF"/>
<path id="A032" d="M555.159 1060.37L802.669 1060.37L802.669 1139.36L555.159 1139.36L555.159 1060.37Z" fill="#6F8EFF"/>
<path id="A031" d="M431.404 1055.11L526.195 1055.11L526.195 1139.37L431.404 1139.37L431.404 1055.11Z" fill="#6F8EFF"/>
<path id="A030" d="M431.404 916.869L526.195 916.869L526.195 1030.09L431.404 1030.09L431.404 916.869Z" fill="#6F8EFF"/>
<path id="A029" d="M303.699 916.869L402.44 916.869L402.44 1016.93L303.699 1016.93L303.699 916.869Z" fill="#6F8EFF"/>
<path id="A028" d="M175.993 916.869L274.734 916.869L274.734 1016.93L175.993 1016.93L175.993 916.869Z" fill="#6F8EFF"/>
<path id="A027" d="M197.059 685.156L315.548 685.156L315.548 857.624L197.059 857.624L197.059 685.156Z" fill="#6F8EFF"/>
<path id="A026" d="M97.001 729.919L154.929 729.919L154.929 791.797L97.001 791.797L97.001 729.919Z" fill="#6F8EFF"/>
<path id="A025" d="M97.001 819.442L154.929 819.442L154.929 881.32L97.001 881.32L97.001 819.442Z" fill="#6F8EFF"/>
<path id="A024" d="M97.001 911.599L128.598 911.599L128.598 972.16L97.001 972.16L97.001 911.599Z" fill="#6F8EFF"/>
<path id="A023" d="M97.001 999.811L128.598 999.811L128.598 1089.34L97.001 1089.34L97.001 999.811Z" fill="#6F8EFF"/>
<path id="A022" d="M345.828 685.156L420.871 685.156L420.871 886.588L345.828 886.588L345.828 685.156Z" fill="#6F8EFF"/>
<path id="A021" d="M451.151 685.156L526.194 685.156L526.194 886.588L451.151 886.588L451.151 685.156Z" fill="#6F8EFF"/>
<path id="A020" d="M160.195 1049.84L219.439 1049.84L219.439 1110.4L160.195 1110.4L160.195 1049.84Z" fill="#6F8EFF"/>
<path id="A019" d="M251.037 1049.84L310.281 1049.84L310.281 1110.4L251.037 1110.4L251.037 1049.84Z" fill="#6F8EFF"/>
<path id="A018" d="M343.194 1049.84L402.439 1049.84L402.439 1110.4L343.194 1110.4L343.194 1049.84Z" fill="#6F8EFF"/>
<path id="A017" d="M1142.31 419.21L1270.01 419.21L1270.01 635.123L1142.31 635.123L1142.31 419.21Z" fill="#6F8EFF"/>
<path id="A016" d="M1309.51 408.682L1449.06 408.682L1449.06 635.127L1309.51 635.127L1309.51 408.682Z" fill="#6F8EFF"/>
<path id="A015" d="M1485.93 408.682L1757.13 408.682L1757.13 635.127L1485.93 635.127L1485.93 408.682Z" fill="#6F8EFF"/>
<path id="A014" d="M1757.13 374.451L1142.31 374.451L1142.31 271.761L952.725 271.761L952.725 144.056L1757.13 144.056L1757.13 374.451Z" fill="#6F8EFF"/>
<path id="A013" d="M2137.65 685.156L2245.6 685.156L2245.6 877.372L2137.65 877.372L2137.65 685.156Z" fill="#6F8EFF"/>
<path id="A012" d="M2267.98 685.156L2375.94 685.156L2375.94 877.372L2267.98 877.372L2267.98 685.156Z" fill="#6F8EFF"/>
<path id="A011" d="M2398.32 685.156L2506.28 685.156L2506.28 877.372L2398.32 877.372L2398.32 685.156Z" fill="#6F8EFF"/>
<path id="A010" d="M2528.66 685.156L2616.87 685.156L2616.87 877.372L2528.66 877.372L2528.66 685.156Z" fill="#6F8EFF"/>
<path id="A009" d="M2699.81 807.594L2731.41 807.594L2731.41 924.766L2699.81 924.766L2699.81 807.594Z" fill="#6F8EFF"/>
<path id="A008" d="M2699.81 966.896L2731.41 966.896L2731.41 1084.07L2699.81 1084.07L2699.81 966.896Z" fill="#6F8EFF"/>
<path id="A007" d="M2616.87 920.815L2616.87 1022.19L2410.17 1022.19L2410.17 920.815L2616.87 920.815Z" fill="#6F8EFF"/>
<path id="A006" d="M2375.94 920.815L2375.94 1113.03L2287.73 1113.03L2287.73 920.815L2375.94 920.815Z" fill="#6F8EFF"/>
<path id="A005" d="M2267.98 920.815L2267.98 1113.03L2179.78 1113.03L2179.78 920.815L2267.98 920.815Z" fill="#6F8EFF"/>
<path id="A004" d="M2126.29 908.094L2126.29 1030.34L1881.8 1030.34L1881.8 908.094L2126.29 908.094Z" fill="#6F8EFF"/>
<path id="A003" d="M2028.49 1054.79L2028.49 1140.36L1881.8 1140.36L1881.8 1054.79L2028.49 1054.79Z" fill="#6F8EFF"/>
<path id="A002" d="M2152.13 1056.42L2152.13 1142L2053.39 1142L2053.39 1056.42L2152.13 1056.42Z" fill="#6F8EFF"/>
<path id="A001" d="M2616.87 1056.42L2616.87 1140.68L2435.18 1140.68L2435.18 1056.42L2616.87 1056.42Z" fill="#6F8EFF"/>
</g>
</g>
</svg>
